<?xml version="1.0" standalone="no"?><!DOCTYPE svg PUBLIC "-//W3C//DTD SVG 1.1//EN" "http://www.w3.org/Graphics/SVG/1.1/DTD/svg11.dtd"><svg t="1591708186937" class="icon" viewBox="0 0 1024 1024" version="1.1" xmlns="http://www.w3.org/2000/svg" p-id="8067" xmlns:xlink="http://www.w3.org/1999/xlink" width="128" height="128"><defs><style type="text/css"></style></defs><path d="M931.0976 512.2816c-23.38304-211.42528-120.5504-286.75584-203.68384-286.75584-30.27456 0-50.83648 12.3392-72.6016 25.40544-29.2864 17.56672-62.46912 37.48352-134.28224 37.48352s-104.99584-19.9168-134.28224-37.48864c-21.76512-13.06112-42.32192-25.40032-72.6016-25.40032-83.13344 0-180.3008 75.33056-203.68384 286.75584-16.91136 153.03168-8.10496 242.94912 27.73504 282.96192 14.3104 15.9744 32.72192 24.07424 54.72768 24.07424 55.63904 0 87.0912-32.96768 123.51488-71.15264l0.1536-0.16384c12.672-13.28128 25.77408-27.008 41.03168-40.62208 39.66464-35.4048 79.68256-40.27904 117.01248-40.27904 6.86592 0 13.65504 0.1536 19.64544 0.29696 6.08256 0.15872 12.01664 0.30208 17.62816 0.30208h18.2272c5.59616 0 11.54048-0.13824 17.62816-0.30208 5.98528-0.13824 12.76416-0.29696 19.64032-0.29696 37.33504 0 77.35296 4.87424 117.0176 40.27904 15.232 13.58848 28.30336 27.29472 40.96 40.54528l0.22528 0.24064c36.41856 38.18496 67.8656 71.15264 123.51488 71.15264 22.00576 0 40.41728-8.09984 54.72256-24.07424 35.85536-40.0128 44.66688-129.93024 27.7504-282.96192z m-51.6096 261.5808c-8.07936 9.02144-18.17088 13.39904-30.848 13.39904-41.92256 0-66.41664-25.68192-100.32128-61.21984-13.13792-13.77792-26.73152-28.03712-43.0336-42.57792-47.81056-42.67008-96.77312-48.42496-138.36288-48.42496-6.77888 0-13.25568 0.14336-20.41344 0.32256l-0.25088 0.01024c-5.81632 0.13312-11.30496 0.27136-16.60416 0.27136h-18.2272c-5.2992 0-10.78272-0.13312-16.59904-0.27136l-0.26112-0.01024a797.8752 797.8752 0 0 0-19.66592-0.30208c-41.97376 0-91.32544 5.75488-139.1104 48.40448-16.29184 14.5408-29.88544 28.79488-43.0336 42.57792-33.90464 35.53792-58.39872 61.21984-100.31616 61.21984-12.68224 0-22.77376-4.3776-30.85312-13.39904-28.51328-31.84128-35.15392-118.66624-19.7376-258.048 21.05344-190.39232 102.5536-258.2272 171.81184-258.2272 21.4016 0 36.7104 9.1904 56.11008 20.8384 31.22688 18.73408 70.08768 42.04544 150.76864 42.04544s119.54176-23.31136 150.77888-42.05568c19.38944-11.63776 34.70336-20.82816 56.09984-20.82816 69.25312 0 150.7584 67.84 171.81184 258.2272 15.42144 139.38176 8.77568 226.20672-19.74272 258.048z" p-id="8068"></path><path d="M770.06336 400.3072a40.27904 40.27904 0 0 1-40.28416 40.28416c-22.25152 0-40.27904-18.02752-40.27904-40.28416s18.02752-40.28416 40.27904-40.28416a40.27904 40.27904 0 0 1 40.28416 40.28416z m0 0M770.06336 561.4336a40.27392 40.27392 0 0 1-40.28416 40.27904c-22.25152 0-40.27904-18.02752-40.27904-40.27904s18.02752-40.28416 40.27904-40.28416a40.28416 40.28416 0 0 1 40.28416 40.28416z m0 0M810.3424 521.14944a40.2688 40.2688 0 0 1-40.27904-40.27904 40.2688 40.2688 0 0 1 40.27904-40.27904 40.27392 40.27392 0 0 1 40.27904 40.27904 40.27904 40.27904 0 0 1-40.27904 40.27904z m0 0M649.21088 521.14944a40.27392 40.27392 0 0 1-40.27904-40.27904 40.27392 40.27392 0 0 1 40.27904-40.27904 40.27392 40.27392 0 0 1 40.28416 40.27904 40.27392 40.27392 0 0 1-40.28416 40.27904z m0 0M416.48128 454.016H349.3376V386.88256a26.8544 26.8544 0 0 0-53.7088 0v67.13856H228.49536a26.8544 26.8544 0 0 0 0 53.7088H295.6288v67.13856a26.84928 26.84928 0 0 0 53.7088 0V507.7248h67.14368a26.8544 26.8544 0 0 0 0-53.7088z m0 0" p-id="8069"></path></svg>