<?xml version="1.0" standalone="no"?><!DOCTYPE svg PUBLIC "-//W3C//DTD SVG 1.1//EN" "http://www.w3.org/Graphics/SVG/1.1/DTD/svg11.dtd"><svg t="1590301223597" class="icon" viewBox="0 0 1024 1024" version="1.1" xmlns="http://www.w3.org/2000/svg" p-id="11834" xmlns:xlink="http://www.w3.org/1999/xlink" width="128" height="128"><defs><style type="text/css"></style></defs><path d="M504.123077 866.461538c7.876923 0 15.753846-3.938462 19.692308-7.876923l252.061538-256c3.938462-3.938462 7.876923-11.815385 7.876923-19.692307s-3.938462-15.753846-7.876923-19.692308l-370.215385-370.215385c-11.815385-11.815385-23.630769-19.692308-43.323076-27.56923-11.815385-3.938462-27.569231-7.876923-39.384616-7.876923H106.338462c-7.876923 0-11.815385 3.938462-19.692308 7.876923-3.938462 7.876923-7.876923 11.815385-7.876923 19.692307v216.615385c0 15.753846 3.938462 31.507692 11.815384 47.261538 3.938462 15.753846 15.753846 27.569231 23.63077 39.384616l370.215384 374.153846c3.938462 0 11.815385 3.938462 19.692308 3.938461M204.8 181.169231c27.569231 0 55.138462 11.815385 74.830769 31.507692s31.507692 47.261538 31.507693 70.892308c0 27.569231-7.876923 59.076923-31.507693 78.769231-19.692308 15.753846-47.261538 27.569231-74.830769 27.56923s-55.138462-11.815385-74.830769-31.507692-31.507692-47.261538-31.507693-70.892308a107.598769 107.598769 0 0 1 106.338462-106.338461M504.123077 905.846154c-15.753846 0-31.507692-7.876923-43.323077-19.692308l-370.215385-370.215384c-15.753846-15.753846-27.569231-31.507692-35.446153-51.2-7.876923-19.692308-11.815385-39.384615-11.815385-59.076924V185.107692c0-15.753846 7.876923-35.446154 19.692308-47.261538 7.876923-11.815385 23.630769-19.692308 43.323077-19.692308h216.615384c19.692308 0 43.323077 3.938462 59.076923 15.753846 19.692308 7.876923 39.384615 19.692308 51.2 35.446154l370.215385 370.215385c11.815385 11.815385 19.692308 31.507692 19.692308 47.261538 0 15.753846-7.876923 35.446154-19.692308 47.261539L551.384615 886.153846c-11.815385 11.815385-27.569231 19.692308-47.261538 19.692308zM204.8 220.553846c-15.753846 0-35.446154 3.938462-47.261538 19.692308-11.815385 11.815385-19.692308 27.569231-19.692308 43.323077 0 15.753846 7.876923 35.446154 19.692308 47.261538 11.815385 11.815385 27.569231 19.692308 47.261538 19.692308 15.753846 0 35.446154-7.876923 47.261538-19.692308 11.815385-11.815385 19.692308-27.569231 19.692308-47.261538 0-15.753846-7.876923-35.446154-19.692308-47.261539-11.815385-11.815385-27.569231-15.753846-47.261538-15.753846z" fill="#228CF8" p-id="11835"></path><path d="M657.723077 913.723077c-7.876923 7.876923-19.692308 7.876923-27.569231 0-7.876923-7.876923-7.876923-19.692308 0-27.569231l256-256c11.815385-11.815385 19.692308-27.569231 19.692308-47.261538 0-15.753846-7.876923-35.446154-19.692308-47.261539l-370.215384-370.215384c-15.753846-15.753846-31.507692-27.569231-51.2-35.446154-19.692308-7.876923-39.384615-11.815385-59.076924-15.753846-15.753846 3.938462-23.630769-3.938462-23.630769-15.753847 0-11.815385 7.876923-19.692308 19.692308-19.692307 27.569231 0 51.2 7.876923 74.830769 15.753846 23.630769 7.876923 47.261538 23.630769 66.953846 43.323077l370.215385 370.215384c19.692308 19.692308 31.507692 47.261538 31.507692 74.83077s-11.815385 55.138462-31.507692 74.830769l-256 256" fill="#228CF8" p-id="11836"></path></svg>