<?xml version="1.0" standalone="no"?><!DOCTYPE svg PUBLIC "-//W3C//DTD SVG 1.1//EN" "http://www.w3.org/Graphics/SVG/1.1/DTD/svg11.dtd"><svg t="1591708169647" class="icon" viewBox="0 0 1092 1024" version="1.1" xmlns="http://www.w3.org/2000/svg" p-id="7276" xmlns:xlink="http://www.w3.org/1999/xlink" width="136.5" height="128"><defs><style type="text/css"></style></defs><path d="M215.586 219.443v-82.91A136.533 136.533 0 0 1 352.12 0h359.288A136.533 136.533 0 0 1 847.94 136.533v82.91h107.793a136.533 136.533 0 0 1 136.534 136.534v531.49A136.533 136.533 0 0 1 955.733 1024h-819.2A136.533 136.533 0 0 1 0 887.467v-531.49a136.533 136.533 0 0 1 136.533-136.534h79.053z m86.22 0H761.72v-97.587a34.133 34.133 0 0 0-34.133-34.133H335.94a34.133 34.133 0 0 0-34.133 34.133v97.621z m186.847 336.452h-128.58a43.895 43.895 0 1 0 0 87.757h128.58V776.09a43.11 43.11 0 1 0 86.22 0V643.652h128.58a43.895 43.895 0 0 0 0-87.757h-128.58V423.458a43.11 43.11 0 0 0-86.22 0v132.437z" p-id="7277"></path></svg>