<?xml version="1.0" standalone="no"?><!DOCTYPE svg PUBLIC "-//W3C//DTD SVG 1.1//EN" "http://www.w3.org/Graphics/SVG/1.1/DTD/svg11.dtd"><svg t="1590301168863" class="icon" viewBox="0 0 1024 1024" version="1.1" xmlns="http://www.w3.org/2000/svg" p-id="9228" xmlns:xlink="http://www.w3.org/1999/xlink" width="128" height="128"><defs><style type="text/css"></style></defs><path d="M903.466667 93.226667H192A99.413333 99.413333 0 0 0 91.946667 192v187.733333H24.32a2.986667 2.986667 0 0 0-2.986667 2.986667V426.666667a2.986667 2.986667 0 0 0 2.986667 2.986666h67.626667v165.546667H24.32A2.986667 2.986667 0 0 0 21.333333 597.333333v44.373334a2.986667 2.986667 0 0 0 2.986667 2.986666h67.626667v190.506667a91.946667 91.946667 0 0 0 28.8 67.626667A101.76 101.76 0 0 0 192 930.773333h710.4a101.76 101.76 0 0 0 70.4-27.093333 91.946667 91.946667 0 0 0 28.8-67.626667v-49.28L1002.666667 192a99.413333 99.413333 0 0 0-99.2-98.773333zM192 880a44.373333 44.373333 0 0 1-47.36-43.946667v-190.72h65.706667a2.986667 2.986667 0 0 0 2.986666-2.986666V597.333333a2.986667 2.986667 0 0 0-2.986666-2.986666H143.786667v-164.266667h66.56A2.986667 2.986667 0 0 0 213.333333 426.666667v-43.946667a2.986667 2.986667 0 0 0-2.986666-2.986667H143.786667V192A47.573333 47.573333 0 0 1 192 145.066667h545.706667v734.933333z m760.746667-43.946667a46.506667 46.506667 0 0 1-49.706667 43.946667h-114.986667V145.066667h115.626667A47.36 47.36 0 0 1 950.826667 192z" fill="#1194C7" p-id="9229"></path><path d="M592 504.746667c9.173333 0 16.426667-11.093333 16.426667-19.413334s-7.466667-19.413333-16.426667-19.413333h-68.266667l49.706667-80.853333a24.533333 24.533333 0 0 0-11.733333-21.333334 21.333333 21.333333 0 0 0-25.173334 5.76l-58.666666 96.426667h-3.84l-58.666667-95.36a18.773333 18.773333 0 0 0-26.026667-5.76 22.613333 22.613333 0 0 0-11.733333 21.333333l49.066667 79.786667h-71.466667c-9.173333 0-16.426667 11.093333-16.426667 19.413333s7.466667 19.413333 16.426667 19.413334h100.053333V554.666667h-100.053333c-9.173333 0-16.426667 11.093333-16.426667 19.413333s7.466667 19.413333 16.426667 19.413333h100.053333v60.373334c0 8.32 10.88 14.933333 20.053334 14.933333s20.053333-6.613333 20.053333-14.933333V593.066667h96.426667c9.173333 0 16.426667-11.093333 16.426666-19.413334s-7.466667-19.413333-16.426666-19.413333h-96.426667v-49.493333z" fill="#1194C7" p-id="9230"></path></svg>