<?xml version="1.0" standalone="no"?><!DOCTYPE svg PUBLIC "-//W3C//DTD SVG 1.1//EN" "http://www.w3.org/Graphics/SVG/1.1/DTD/svg11.dtd"><svg t="1591708201295" class="icon" viewBox="0 0 1024 1024" version="1.1" xmlns="http://www.w3.org/2000/svg" p-id="8820" xmlns:xlink="http://www.w3.org/1999/xlink" width="128" height="128"><defs><style type="text/css"></style></defs><path d="M346.166 450.834H137.389C79.769 450.834 33 404.02 33 346.445V137.668c0-57.619 46.768-104.387 104.388-104.387h208.776c57.596 0 104.385 46.77 104.385 104.387v208.776c0.001 57.577-46.788 104.39-104.384 104.39z m-14.917-298.272H152.304v178.945H331.25V152.562z m14.917 835.104H137.389C79.769 987.666 33 940.897 33 883.278V674.503c0-57.622 46.768-104.388 104.388-104.388h208.776c57.596 0 104.385 46.766 104.385 104.388V883.28c0.001 57.618-46.788 104.387-104.384 104.387z m-14.917-298.272H152.304V868.34H331.25V689.394z m551.747-238.56H674.22c-57.598 0-104.385-46.813-104.385-104.389V137.668c0-57.619 46.787-104.387 104.385-104.387h208.776c57.621 0 104.389 46.77 104.389 104.387v208.776c-0.001 57.577-46.769 104.39-104.389 104.39z m-14.914-298.272H689.137v178.945h178.945V152.562z m14.914 835.104H674.22c-57.598 0-104.385-46.769-104.385-104.388V674.503c0-57.622 46.787-104.388 104.385-104.388h208.776c57.621 0 104.389 46.766 104.389 104.388V883.28c-0.001 57.618-46.769 104.387-104.389 104.387z m-14.914-298.272H689.137V868.34h178.945V689.394z" fill="#666666" p-id="8821"></path></svg>